<?xml version="1.0" encoding="utf-8"?>
<!-- Generator: Adobe Illustrator 19.2.1, SVG Export Plug-In . SVG Version: 6.00 Build 0)  -->
<svg version="1.1" id="Слой_1" xmlns="http://www.w3.org/2000/svg" xmlns:xlink="http://www.w3.org/1999/xlink" x="0px" y="0px"
	 viewBox="0 0 67.3 62" style="enable-background:new 0 0 67.3 62;" xml:space="preserve">
<style type="text/css">
	.st0{fill:#FFFFFF;}
	.st1{fill:#E43126;}
</style>
<g id="business-team">
	<g>
		<path class="st0" d="M43.7,21.4c0.4,0.1,0.9,0.2,1.3,0.2c2.4,0,4.3-1.9,4.3-4.3c0-2.4-1.9-4.3-4.3-4.3c-2.4,0-4.3,1.9-4.3,4.3
			c0,0.4,0.1,0.7,0.2,1.1C42.2,19.1,43.2,20.1,43.7,21.4z"/>
		<path class="st0" d="M49.1,22.6c-0.2,0-2.8,0-5,0c0.1,0.5,0.2,1.1,0.2,1.7v12.6c0,1.7-1.4,3.1-3.1,3.1c-0.3,0-0.6-0.1-0.9-0.1
			c0,4.9,0,10.1,0,12.7h4.3c0-3.8,0-12.3,0-12.3h0.9c0,0,0,8.5,0,12.3h4.3c0-5.8,0-24.2,0-24.2h0.5c0,0,0,9.1,0,10.2
			c0,0.9,0.7,1.6,1.6,1.6c0.9,0,1.6-0.7,1.6-1.6c0-0.9,0-10,0-11.3C53.4,24.7,51.7,22.6,49.1,22.6z"/>
	</g>
	<g>
		<path class="st0" d="M22.2,21.6c0.5,0,0.9-0.1,1.4-0.2c0.6-1.3,1.5-2.3,2.7-2.9c0.1-0.4,0.2-0.7,0.2-1.1c0-2.4-1.9-4.3-4.3-4.3
			S18,15,18,17.4C18,19.7,19.9,21.6,22.2,21.6z"/>
		<path class="st0" d="M23,36.9V24.3c0-0.6,0.1-1.2,0.2-1.7c-2.2,0-4.8,0-5,0c-2.6,0-4.3,2.1-4.3,4.7c0,1.3,0,10.4,0,11.3
			c0,0.9,0.7,1.6,1.6,1.6c0.9,0,1.6-0.7,1.6-1.6c0-1,0-10.2,0-10.2h0.5c0,0,0,18.4,0,24.2h4.3c0-3.8,0-12.3,0-12.3h0.9
			c0,0,0,8.5,0,12.3H27c0-2.6,0-7.8,0-12.7c-0.3,0.1-0.6,0.1-0.9,0.1C24.4,40,23,38.6,23,36.9z"/>
	</g>
	<circle class="st1" cx="33.7" cy="13.3" r="4.8"/>
	<path class="st1" d="M41.3,38.7c1,0,1.8-0.8,1.8-1.8c0-1,0-11.1,0-12.6c0-0.6-0.1-1.2-0.3-1.7c-0.6-2-2.3-3.5-4.6-3.5
		c-0.4,0-1,0-1.8,0l-0.2,0.2l-2.1,1.8l1.5,4.1l-2,4.4l-1.8-4.3l1.4-4.1l-1.9-1.8L31,19.1c-0.8,0-1.4,0-1.8,0c-2.3,0-4,1.5-4.6,3.5
		c-0.2,0.5-0.3,1.1-0.3,1.7c0,1.5,0,11.6,0,12.6c0,1,0.8,1.8,1.8,1.8c0.3,0,0.6-0.1,0.9-0.3c0.2-0.1,0.4-0.3,0.5-0.5
		c0.2-0.3,0.3-0.7,0.3-1c0-1.1,0-11.3,0-11.3h0.6c0,0,0,7.2,0,14.4c0,5,0,9.9,0,12.6h4.8c0-4.3,0-13.8,0-13.8h1c0,0,0,9.5,0,13.8H39
		c0-2.6,0-7.6,0-12.6c0-7.2,0-14.4,0-14.4h0.5c0,0,0,10.2,0,11.3c0,0.4,0.1,0.7,0.3,1c0.1,0.2,0.3,0.4,0.5,0.5
		C40.6,38.6,40.9,38.7,41.3,38.7z"/>
</g>
</svg>
