<?xml version="1.0" encoding="utf-8"?>
<!-- Generator: Adobe Illustrator 19.2.1, SVG Export Plug-In . SVG Version: 6.00 Build 0)  -->
<svg version="1.1" id="Слой_1" xmlns="http://www.w3.org/2000/svg" xmlns:xlink="http://www.w3.org/1999/xlink" x="0px" y="0px"
	 viewBox="0 0 67.3 62" style="enable-background:new 0 0 67.3 62;" xml:space="preserve">
<style type="text/css">
	.st0{fill:#E43126;}
	.st1{fill:#FFFFFF;}
</style>
<g id="business-insurance-investment_3_">
	<path class="st0" d="M47.5,20.2C47.5,20.2,47.5,20.2,47.5,20.2C47.5,20.2,47.5,20.2,47.5,20.2L47.5,20.2L47.5,20.2
		c-0.2-0.8-0.7-1.8-1-2.4c-2.5-4.8-6.9-7.6-12.4-7.8l-0.2-2.7c-0.2-0.2-0.4,0-0.4,0l-0.4,2.7c-5.1,0-9.5,2.4-11.8,6.3l-0.2,0.3
		c-0.6,1.1-1.1,2.3-1.4,3.7c0,0,0,0,0,0v2.4h13.1v13.2h2.1V22.6h12.6V20.2z"/>
	<g>
		<g>
			<ellipse class="st1" cx="45.3" cy="26.4" rx="2.8" ry="2.8"/>
		</g>
		<g>
			<path class="st1" d="M47.8,29.7c-0.2,0-0.4,0-0.6,0L47,29.8L45.6,31l1,2.8l-1.4,3l-1.3-3l1-2.8l-1.3-1.2l-0.1-0.1
				c-0.2,0-0.3,0-0.4,0c-1.1,0-2.1,0.6-2.7,1.4c-0.8,1.3-1.8,2.6-2.3,3.3c-1.2,0-2.7,0-3.1,0c-0.6,0-1.1,0.5-1.1,1.1
				c0,0.6,0.5,1.1,1.1,1.1c0.7,0,4.2,0,4.2,0c0.3,0,0.7-0.2,0.9-0.5c0.4-0.6,1.7-2.5,1.7-2.5h0.3c0,0,0,15.9,0,17.1
				c0,0.8,0.7,1.5,1.5,1.5c0.8,0,1.5-0.6,1.5-1.5c0-1.2,0-9,0-9h0.6c0,0,0,7.8,0,9c0,0.8,0.7,1.5,1.5,1.5c0.8,0,1.5-0.6,1.5-1.5
				c0-1.2,0-17.1,0-17.1h0.3c0,0,0,6.2,0,6.9c0,0.6,0.5,1.1,1.1,1.1c0.6,0,1.1-0.5,1.1-1.1c0-0.6,0-6.8,0-7.7
				C50.7,31.1,49.5,29.7,47.8,29.7z"/>
		</g>
	</g>
	<g>
		<g>
			<ellipse class="st1" cx="22.1" cy="26.4" rx="2.8" ry="2.8"/>
		</g>
		<g>
			<path class="st1" d="M19.6,29.7c0.1,0,0.4,0,0.6,0l0.2,0.1l1.4,1.2l-1,2.8l1.4,3l1.2-3l-1-2.8l1.3-1.2l0.1-0.1c0.2,0,0.3,0,0.4,0
				c1.1,0,2.1,0.6,2.7,1.4c0.8,1.3,1.8,2.6,2.3,3.3c1.2,0,2.7,0,3.1,0c0.6,0,1.1,0.5,1.1,1.1c0,0.6-0.5,1.1-1.1,1.1
				c-0.7,0-4.2,0-4.2,0c-0.3,0-0.7-0.2-0.9-0.5c-0.4-0.6-1.7-2.5-1.7-2.5h-0.3c0,0,0,15.9,0,17.1c0,0.8-0.7,1.5-1.5,1.5
				c-0.8,0-1.5-0.6-1.5-1.5c0-1.2,0-9,0-9H22c0,0,0,7.8,0,9c0,0.8-0.7,1.5-1.5,1.5c-0.8,0-1.5-0.6-1.5-1.5c0-1.2,0-17.1,0-17.1h-0.3
				c0,0,0,6.2,0,6.9c0,0.6-0.5,1.1-1.1,1.1c-0.6,0-1.1-0.5-1.1-1.1c0-0.6,0-6.8,0-7.7C16.7,31.1,17.8,29.7,19.6,29.7z"/>
		</g>
	</g>
</g>
</svg>
