<svg id="GC_GAME_CORE" data-name="GC GAME CORE" xmlns="http://www.w3.org/2000/svg" viewBox="0 0 470.42 65.96"><defs><style>.cls-1{fill:#a5a5a5;}.cls-2{fill:#fff;}</style></defs><title>logo5</title><path class="cls-1" d="M346.88,202.85q0,6-6,6H320.19q-5.84,0-5.84-6V149.13q0-6.05,6-6.05h20.56q6,0,6,6.05v14H337V151.52H324.18v48.89H337V182h-7.31v-8.37h17.19v29.21Z" transform="translate(-314.34 -142.91)"/><path class="cls-1" d="M366.89,208.86h-9.46V198.69h9.46v10.17Z" transform="translate(-314.34 -142.91)"/><path class="cls-1" d="M409.84,202.85q0,6-6,6H383.32q-5.84,0-5.84-6V149.13q0-6.05,5.84-6.05h20.51q6,0,6,6.05v15.39H400v-13H387.31v48.89H400V186.58h9.79v16.27Z" transform="translate(-314.34 -142.91)"/><path class="cls-1" d="M429.72,208.86h-9.46V198.69h9.46v10.17Z" transform="translate(-314.34 -142.91)"/><path class="cls-2" d="M488.52,204.2a4.47,4.47,0,0,1-4.67,4.67H466.58a4.47,4.47,0,0,1-4.67-4.67V147.74a4.47,4.47,0,0,1,4.67-4.67h17.28a4.47,4.47,0,0,1,4.67,4.67V163h-5.89v-14.8H467.76v55.45h14.88V180.95h-7v-5h12.91V204.2Z" transform="translate(-314.34 -142.91)"/><path class="cls-2" d="M528.92,208.86h-5.8l-2.31-14.63H507.73l-2.31,14.63h-5.63v-0.17l11.73-65.79h5.76ZM520,189.06l-5.76-35.65-5.8,35.65H520Z" transform="translate(-314.34 -142.91)"/><path class="cls-2" d="M572.8,208.86h-5.51V167.2q0-.88.59-5.17l-10.76,40.65h-1.18L545.18,162q0.59,4.33.59,5.17v41.66h-5.51V143.07h5.42l10.68,42.79a15.11,15.11,0,0,1,.17,1.89,15.65,15.65,0,0,1,.17-1.89l10.68-42.79h5.42v65.79Z" transform="translate(-314.34 -142.91)"/><path class="cls-2" d="M608.36,208.86H586.75V143.07h21.35v5.17H592.6v24.55h14.13V178H592.6v25.64h15.76v5.17Z" transform="translate(-314.34 -142.91)"/><path class="cls-2" d="M667.58,204.2a4.47,4.47,0,0,1-1.35,3.36,4.69,4.69,0,0,1-3.4,1.3H645.89a4.47,4.47,0,0,1-4.67-4.67V147.74a4.46,4.46,0,0,1,4.67-4.67h16.94a4.7,4.7,0,0,1,3.4,1.3,4.48,4.48,0,0,1,1.35,3.36V163H661.7v-14.8H647.07v55.45H661.7V187.51h5.89V204.2Z" transform="translate(-314.34 -142.91)"/><path class="cls-2" d="M709,204.2a4.51,4.51,0,0,1-1.32,3.36,4.62,4.62,0,0,1-3.38,1.3H685.91a4.47,4.47,0,0,1-4.67-4.67V147.74a4.46,4.46,0,0,1,4.67-4.67h18.41a4.63,4.63,0,0,1,3.38,1.3,4.51,4.51,0,0,1,1.32,3.36V204.2Zm-5.84-.5V148.24h-16.1v55.45h16.1Z" transform="translate(-314.34 -142.91)"/><path class="cls-2" d="M751,208.86h-6.14l-12.23-35.23,0.8-1.18h10.43V148.24h-15v60.62H723V143.07h22a4.47,4.47,0,0,1,4.67,4.67v25q0,4.75-6.39,4.75-0.63,0-1.85-.06t-1.77-.06Q745.34,193.06,751,208.86Z" transform="translate(-314.34 -142.91)"/><path class="cls-2" d="M784.77,208.86H763.16V143.07h21.35v5.17H769v24.55h14.12V178H769v25.64h15.76v5.17Z" transform="translate(-314.34 -142.91)"/></svg>