<?xml version="1.0" encoding="utf-8"?>
<!-- Generator: Adobe Illustrator 19.2.1, SVG Export Plug-In . SVG Version: 6.00 Build 0)  -->
<svg version="1.1" id="Слой_1" xmlns="http://www.w3.org/2000/svg" xmlns:xlink="http://www.w3.org/1999/xlink" x="0px" y="0px"
	 viewBox="0 0 67.3 62" style="enable-background:new 0 0 67.3 62;" xml:space="preserve">
<style type="text/css">
	.st0{fill-rule:evenodd;clip-rule:evenodd;fill:#FFFFFF;}
	.st1{fill-rule:evenodd;clip-rule:evenodd;fill:#E43126;}
</style>
<g id="puzzle-pieces_2_">
	<g>
		<path class="st0" d="M13.5,14c0-1,0.9-1.9,1.9-1.9h15.3c1,0,1.9,0.9,1.9,1.9v6.2c1,0,1.6,0,2.1-0.8c0.1-0.2,0.3-0.4,0.5-0.6
			c0.4-0.3,0.8-0.5,1.2-0.5c1.3,0,2.3,1.5,2.3,3.4c0,0.9-0.3,1.8-0.7,2.4c-0.4,0.6-1,1-1.6,1c-0.2,0-0.4-0.1-0.7-0.1
			c-0.2-0.1-0.4-0.2-0.6-0.4c-0.2-0.2-0.3-0.4-0.5-0.6c-0.5-0.8-1.1-0.8-2.1-0.8v6.2c0,1-0.9,1.9-1.9,1.9h-3.2
			c0.1-0.1,0.1-0.2,0.2-0.3c0.6-1.1,0.7-2.2,0.1-3.4c-0.9-1.5-2.4-2.2-4-2.4c-1.2-0.1-2.2,0.1-3.3,0.5l-0.8,0.4
			c-0.4,0.3-0.7,0.5-1,0.9l0,0c-0.3,0.4-0.5,1-0.6,1.2c-0.1,0.3-0.2,0.7-0.2,0.9l0,0c0,0.6,0.1,1,0.4,1.5c0.1,0.2,0.2,0.4,0.4,0.6
			h-3.2c-1,0-1.9-0.9-1.9-1.9V14z"/>
	</g>
	<g>
		<g>
			<path class="st1" d="M51.6,12.1c1,0,1.9,0.9,1.9,1.9v15.3c0,1-0.9,1.9-1.9,1.9h-6.2c0,1,0,1.6,0.8,2.1c0.2,0.1,0.4,0.3,0.6,0.5
				c0.3,0.4,0.5,0.8,0.5,1.2c0,1.3-1.5,2.3-3.4,2.3c-0.9,0-1.8-0.3-2.4-0.7c-0.6-0.4-1-1-1-1.6c0-0.2,0.1-0.4,0.1-0.7
				c0.1-0.2,0.2-0.4,0.4-0.6c0.2-0.2,0.4-0.3,0.6-0.5c0.8-0.5,0.8-1.1,0.8-2.1h-6.2c-1,0-1.9-0.9-1.9-1.9v-3.2
				c0.1,0.1,0.2,0.1,0.3,0.2c1.1,0.6,2.2,0.7,3.4,0.1c1.5-0.9,2.2-2.4,2.4-4c0.1-1.2-0.1-2.2-0.5-3.3l-0.4-0.8
				c-0.3-0.4-0.5-0.7-0.9-1l0,0c-0.4-0.3-1-0.5-1.2-0.6c-0.3-0.1-0.7-0.2-0.9-0.2l0,0c-0.6,0-1,0.1-1.5,0.4
				c-0.2,0.1-0.4,0.2-0.6,0.4V14c0-1,0.9-1.9,1.9-1.9H51.6z"/>
		</g>
	</g>
	<g>
		<path class="st0" d="M53.5,50.2c0,1-0.9,1.9-1.9,1.9H36.3c-1,0-1.9-0.9-1.9-1.9V44c-1,0-1.6,0-2.1,0.8c-0.1,0.2-0.3,0.4-0.5,0.6
			c-0.4,0.3-0.8,0.5-1.2,0.5c-1.3,0-2.3-1.5-2.3-3.4c0-0.9,0.3-1.8,0.7-2.4c0.4-0.6,1-1,1.6-1c0.2,0,0.4,0,0.7,0.1
			c0.2,0.1,0.4,0.2,0.6,0.4c0.2,0.2,0.3,0.4,0.5,0.6c0.5,0.8,1.1,0.8,2.1,0.8v-6.2c0-1,0.9-1.9,1.9-1.9h3.2
			c-0.1,0.1-0.1,0.2-0.2,0.3c-0.6,1.1-0.7,2.2-0.1,3.4c0.9,1.5,2.4,2.2,4,2.4c1.2,0.1,2.2-0.1,3.3-0.5l0.8-0.4
			c0.4-0.3,0.7-0.5,1-0.9l0,0c0.3-0.4,0.5-1,0.6-1.2c0.1-0.3,0.2-0.7,0.2-0.9l0,0c0-0.6-0.1-1-0.4-1.5c-0.1-0.2-0.2-0.4-0.4-0.6h3.2
			c1,0,1.9,0.9,1.9,1.9V50.2z"/>
	</g>
	<g>
		<path class="st0" d="M15.4,52.1c-1,0-1.9-0.9-1.9-1.9V34.9c0-1,0.9-1.9,1.9-1.9h6.2c0-1,0-1.6-0.8-2.1c-0.2-0.1-0.4-0.3-0.6-0.5
			c-0.3-0.4-0.5-0.8-0.5-1.2c0-1.3,1.5-2.3,3.4-2.3c0.9,0,1.8,0.3,2.4,0.7c0.6,0.4,1,1,1,1.6c0,0.2,0,0.4-0.1,0.7
			c-0.1,0.2-0.2,0.4-0.4,0.6c-0.2,0.2-0.4,0.3-0.6,0.5c-0.8,0.5-0.8,1.1-0.8,2.1h6.2c1,0,1.9,0.9,1.9,1.9v3.2
			c-0.1-0.1-0.2-0.1-0.3-0.2c-1.1-0.6-2.2-0.7-3.4-0.1c-1.5,0.9-2.2,2.4-2.4,4c-0.1,1.2,0.1,2.2,0.5,3.3l0.4,0.8
			c0.3,0.4,0.5,0.7,0.9,1l0,0c0.4,0.3,1,0.5,1.2,0.6c0.3,0.1,0.7,0.2,0.9,0.2l0,0c0.6,0,1-0.1,1.5-0.4c0.2-0.1,0.4-0.2,0.6-0.4v3.2
			c0,1-0.9,1.9-1.9,1.9H15.4z"/>
	</g>
</g>
</svg>
