<?xml version="1.0" encoding="utf-8"?>
<!-- Generator: Adobe Illustrator 19.2.1, SVG Export Plug-In . SVG Version: 6.00 Build 0)  -->
<svg version="1.1" id="Слой_1" xmlns="http://www.w3.org/2000/svg" xmlns:xlink="http://www.w3.org/1999/xlink" x="0px" y="0px"
	 viewBox="0 0 198 141.7" style="enable-background:new 0 0 198 141.7;" xml:space="preserve">
<style type="text/css">
	.st0{opacity:0.2;fill:#FFFFFF;stroke:#FFFFFF;stroke-miterlimit:10;enable-background:new    ;}
	.st1{fill:none;stroke:#FFFFFF;stroke-width:3;stroke-miterlimit:10;}
	.st2{fill:#FFFFFF;}
</style>
<title>scrol</title>
<rect y="0" class="st0" width="198" height="141.7"/>
<rect x="21.5" y="21.5" class="st1" width="154.5" height="98.8"/>
<g>
	<path class="st2" d="M80.4,69.6c0,8.5-2.3,15-6.9,19.5s-11.2,6.7-19.9,6.7H39.4V44.4h15.8c8,0,14.2,2.2,18.6,6.6
		S80.4,61.6,80.4,69.6z M74.1,69.8c0-6.7-1.7-11.8-5-15.2c-3.4-3.4-8.4-5.1-15-5.1h-8.7v41.1h7.3c7.1,0,12.5-1.8,16.1-5.3
		C72.3,81.9,74.1,76.7,74.1,69.8z"/>
	<path class="st2" d="M91.9,95.8V44.4h6v46h22.7v5.4H91.9z"/>
	<path class="st2" d="M129.3,95.8V44.4h6v46H158v5.4H129.3z"/>
</g>
</svg>
