<?xml version="1.0" encoding="utf-8"?>
<!-- Generator: Adobe Illustrator 19.2.1, SVG Export Plug-In . SVG Version: 6.00 Build 0)  -->
<svg version="1.1" id="Слой_1" xmlns="http://www.w3.org/2000/svg" xmlns:xlink="http://www.w3.org/1999/xlink" x="0px" y="0px"
	 viewBox="0 0 227 53" style="enable-background:new 0 0 227 53;" xml:space="preserve">
<style type="text/css">
	.st0{fill-rule:evenodd;clip-rule:evenodd;fill:#FFFFFF;}
</style>
<g>
	<polygon class="st0" points="7.7,44.9 7.7,8.4 11.9,8.4 11.9,30.1 32.9,8.4 38.1,8.4 11.9,35 11.9,44.9 7.7,44.9 	"/>
	<path class="st0" d="M129.2,27.1v17.8h3.9V30.6h10.4l10.9,14.3h4.9l-11.1-15.1c0,0,9.9-1.1,9.9-10.6c0-9.5-9.8-10.9-10.9-10.9
		c-1.1,0-18,0-18,0v3.7c0,0,15,0,15.8,0c1.7,0,9.1,0.9,9.1,7.2c0,6.3-6.9,7.9-9.1,7.9C143.1,27.1,129.2,27.1,129.2,27.1L129.2,27.1z
		"/>
	<polygon class="st0" points="23.3,31.8 33.7,44.9 38.8,44.9 26.3,28.9 23.3,31.8 	"/>
	<polygon class="st0" points="48,40 51.2,45.9 54.6,40 48,40 	"/>
	<polygon class="st0" points="109.4,40 112.6,45.9 116.1,40 109.4,40 	"/>
	<polygon class="st0" points="87.5,15.8 85.5,20.7 96.4,44.9 100.6,44.9 87.5,15.8 	"/>
	<polygon class="st0" points="168.2,40 171.4,45.9 174.9,40 168.2,40 	"/>
	<polygon class="st0" points="63.5,44.9 80.3,8.1 84,8.1 67.7,44.9 63.5,44.9 	"/>
	<polygon class="st0" points="185.7,44.9 202.5,8.1 206.2,8.1 189.9,44.9 185.7,44.9 	"/>
	<polygon class="st0" points="209.7,15.8 207.7,20.7 218.5,44.9 222.7,44.9 209.7,15.8 	"/>
</g>
</svg>
